<?xml version="1.0" encoding="UTF-8" standalone="no"?>
<svg
   xmlns:dc="http://purl.org/dc/elements/1.1/"
   xmlns:cc="http://creativecommons.org/ns#"
   xmlns:rdf="http://www.w3.org/1999/02/22-rdf-syntax-ns#"
   xmlns:svg="http://www.w3.org/2000/svg"
   xmlns="http://www.w3.org/2000/svg"
   xmlns:sodipodi="http://sodipodi.sourceforge.net/DTD/sodipodi-0.dtd"
   xmlns:inkscape="http://www.inkscape.org/namespaces/inkscape"
   fill="#000000"
   viewBox="0 0 80 80"
   width="80px"
   height="80px"
   version="1.1"
   id="svg4"
   sodipodi:docname="twitter-cl.svg"
   inkscape:version="0.92.3 (2405546, 2018-03-11)">
  <metadata
     id="metadata10">
    <rdf:RDF>
      <cc:Work
         rdf:about="">
        <dc:format>image/svg+xml</dc:format>
        <dc:type
           rdf:resource="http://purl.org/dc/dcmitype/StillImage" />
      </cc:Work>
    </rdf:RDF>
  </metadata>
  <defs
     id="defs8" />
  <sodipodi:namedview
     pagecolor="#ffffff"
     bordercolor="#666666"
     borderopacity="1"
     objecttolerance="10"
     gridtolerance="10"
     guidetolerance="10"
     inkscape:pageopacity="0"
     inkscape:pageshadow="2"
     inkscape:window-width="1600"
     inkscape:window-height="814"
     id="namedview6"
     showgrid="false"
     inkscape:zoom="2.95"
     inkscape:cx="-14.142596"
     inkscape:cy="33.974996"
     inkscape:window-x="0"
     inkscape:window-y="25"
     inkscape:window-maximized="1"
     inkscape:current-layer="svg4" />
  <path
     id="path2"
     d="m 72.347656,10.035156 -2.265625,1.34375 c -2.300781,1.363281 -4.847656,2.34375 -7.546875,2.925782 -2.53125,-2.46875 -5.96875,-4.023438 -9.78125,-4.023438 C 45,10.28125 38.6875,16.593751 38.6875,24.351562 c 0,0.613283 0.125,1.195313 0.203125,1.792969 C 28.820312,25.300781 19.898437,20.441407 13.863281,13.042969 l -0.910156,-1.121094 -0.726563,1.25 c -1.210936,2.078125 -1.90625,4.496094 -1.90625,7.070313 0,3.542968 1.339844,6.765624 3.503907,9.242187 -0.734375,-0.242188 -1.457032,-0.503907 -2.121094,-0.871094 L 10.21875,27.785156 v 1.863282 c 0,5.238281 2.898437,9.769531 7.15625,12.1875 -0.464844,-0.03125 -0.9375,-0.04297 -1.386719,-0.128907 l -1.65625,-0.316406 0.515625,1.601563 c 1.527344,4.769531 5.585938,8.257812 10.542969,9.304687 -3.941406,2.53125 -8.578125,4.058594 -13.613281,4.058594 -1.015625,0 -2.0156254,-0.05469 -3.0000002,-0.175781 l -4.3203126,-0.515626 3.6640626,2.355469 c 5.9375002,3.804687 12.9960932,6.023438 20.5703122,6.023438 12.292969,0 21.890625,-5.121093 28.351563,-12.453125 6.460937,-7.328125 9.824218,-16.835938 9.824219,-25.722656 0,-0.421877 -0.01172,-0.835939 -0.02344,-1.25 2.457031,-1.855469 4.625,-4.089844 6.339844,-6.652344 l 1.917968,-2.871094 -3.15625,1.402344 c -1.179687,0.527344 -2.386718,0.941407 -3.625,1.277344 1.402344,-1.5 2.574219,-3.199219 3.226563,-5.230469 z m -19.59375,2.246094 c 3.476563,0 6.609375,1.464843 8.8125,3.8125 l 0.375,0.402344 0.546875,-0.105469 c 2.054688,-0.40625 3.984375,-1.117188 5.84375,-1.953125 -0.976562,1.644531 -2.179687,3.105469 -3.847656,4.105469 l -0.796875,0.476562 0.753906,1.503907 0.699219,-0.08203 c 1.457031,-0.179688 2.847656,-0.48828 4.199219,-0.882812 -1.242188,1.398438 -2.578125,2.710934 -4.09375,3.808594 l -0.433594,0.3125 0.01953,0.539062 c 0.02344,0.546875 0.03516,1.097656 0.03516,1.648438 0,8.378906 -3.203126,17.460937 -9.324219,24.402343 -6.121094,6.941406 -15.109375,11.773438 -26.851563,11.773438 -5.738281,0 -11.128906,-1.386719 -15.945312,-3.769531 C 18.714826,58.062482 24.222656,56 28.625,52.550781 l 2.210938,-1.734375 -2.8125,-0.05469 c -4.703128,-0.08594 -8.621094,-2.929688 -10.535157,-6.914063 0.257813,0.01563 0.503906,0.07422 0.765625,0.07422 1.285156,0 2.53125,-0.171875 3.710938,-0.492187 L 26.035156,42.3125 21.894531,41.480469 c -5.046875,-1.011718 -8.792969,-5.222656 -9.425781,-10.40625 1.457031,0.570313 2.992187,0.992187 4.632812,1.042969 l 3.496094,0.113281 -2.90625,-1.941407 c -3.238281,-2.164058 -5.371092,-5.851566 -5.371094,-10.046874 0,-1.734377 0.457028,-3.332032 1.109376,-4.820313 6.593748,7.4375 15.957031,12.375001 26.542968,12.902344 l 1.324219,0.07031 L 41,27.101562 c -0.207031,-0.882812 -0.3125,-1.804687 -0.3125,-2.75 0,-5.059668 3.102717,-9.378904 7.507812,-11.175781 0.333358,-0.284374 0.686047,-0.417812 1.017579,-0.408203 0.03232,9.37e-4 0.0619,0.01412 0.09375,0.01758 1.093011,-0.324833 2.247752,-0.503906 3.447265,-0.503906 z M 27.861328,42.859375 c 0.108777,0.151695 0.245228,0.281433 0.419922,0.353516 -0.116225,-0.102804 -0.295687,-0.252631 -0.419922,-0.353516 z" />
  <path
     style="fill:#2a7fff;stroke-width:0.33898306"
     d="M 22.903574,61.263419 C 20.980425,60.919327 15.116517,59.0897 14.34858,58.594134 c -0.342403,-0.220959 -5.7e-4,-0.376125 1.18644,-0.538556 2.917283,-0.399196 5.6564,-1.232908 8.447084,-2.571061 2.605465,-1.249339 6.657507,-4.024963 6.892655,-4.721424 0.06676,-0.197742 -0.83472,-0.340437 -2.20339,-0.348766 -3.870116,-0.02355 -7.448197,-1.809481 -9.614889,-4.799074 l -1.056688,-1.458014 2.143698,-0.375224 c 2.806892,-0.491307 5.46015,-1.176358 5.824006,-1.503714 0.159763,-0.143736 -0.602949,-0.4381 -1.694915,-0.654142 -4.332969,-0.857264 -6.376927,-1.85357 -8.402618,-4.095767 -1.955861,-2.164904 -3.596042,-6.083017 -2.546443,-6.083017 0.197102,0 0.997949,0.160926 1.779661,0.357614 0.781713,0.196688 2.411175,0.311095 3.621029,0.254237 l 2.199733,-0.103377 -1.77185,-1.134366 c -5.062186,-3.240892 -7.420004,-8.404523 -6.146696,-13.461288 0.208574,-0.828322 0.4827,-1.506041 0.60917,-1.506041 0.12647,0 0.832937,0.623192 1.569927,1.384871 3.565346,3.684784 9.901582,7.536183 15.32313,9.313968 2.46686,0.80891 8.010159,1.837082 9.928475,1.841536 l 0.860776,0.002 -0.01332,-3.644068 c -0.01188,-3.249194 0.08395,-3.851531 0.884292,-5.558631 1.10098,-2.348322 3.07455,-4.374364 5.44675,-5.59154 1.41879,-0.727989 2.39033,-0.948604 4.67259,-1.061044 3.52088,-0.173462 5.90925,0.596869 8.2565,2.663002 1.51681,1.335144 1.57464,1.354193 3.00099,0.988391 0.79991,-0.205145 2.04545,-0.600424 2.76787,-0.878397 0.72243,-0.277973 1.37999,-0.438911 1.46127,-0.357641 0.19865,0.19866 -2.22356,2.653629 -3.27513,3.319416 -0.76295,0.483046 -0.8011,0.61537 -0.41918,1.453597 0.35836,0.786527 0.56909,0.893429 1.43257,0.726749 3.4964,-0.67492 3.41952,-0.751817 1.26663,1.266941 l -1.94915,1.827719 v 2.547841 c 0,5.259885 -1.71806,11.799636 -4.41269,16.796815 -4.86646,9.02481 -12.60209,15.183216 -22.287732,17.743464 -2.994643,0.791586 -12.18812,1.169746 -15.225563,0.626278 z M 34.999053,49.427273 c 0,-1.441081 -1.802734,-1.956119 -2.222089,-0.634847 -0.309197,0.974193 0.675827,1.761715 1.59095,1.271956 0.347126,-0.185777 0.631139,-0.472475 0.631139,-0.637109 z m -5.475121,-6.417539 c 0.597111,-0.378406 0.38426,-1.391675 -0.392191,-1.867009 -0.841331,-0.515053 -1.728935,0.596681 -1.226271,1.535918 0.364699,0.681446 0.894568,0.789843 1.618462,0.331091 z m 4.246601,-0.456304 c 0.284302,-0.451458 0.240092,-0.716338 -0.191619,-1.148049 -1.015494,-1.015493 -2.530549,0.311685 -1.61506,1.414782 0.527082,0.635094 1.31171,0.519254 1.806679,-0.266733 z m -0.97487,-7.379242 c 0,-0.633125 -0.202787,-0.876149 -0.801809,-0.960903 -1.037288,-0.146763 -1.529012,0.364367 -1.236665,1.285471 0.352288,1.109962 2.038474,0.841486 2.038474,-0.324568 z m -4.067797,-1.016949 c 0,-0.662294 -0.194217,-0.86998 -0.888899,-0.950541 -1.025884,-0.118969 -1.559366,0.75551 -0.926273,1.518339 0.650192,0.783434 1.815172,0.41902 1.815172,-0.567798 z M 24.66007,33.14029 c 0,-0.621264 -0.203979,-0.876423 -0.764228,-0.955979 -0.832917,-0.118275 -1.305985,0.608679 -0.968471,1.488229 0.12251,0.319254 0.510072,0.488822 0.968471,0.423729 0.560249,-0.07956 0.764228,-0.334715 0.764228,-0.955979 z m 19.999997,-8.983051 c 0,-0.857263 -0.13234,-1.016949 -0.84281,-1.016949 -0.54355,0 -0.88474,0.217676 -0.96088,0.613021 -0.19805,1.028398 0.22141,1.645563 1.03946,1.529398 0.59904,-0.08506 0.76423,-0.328338 0.76423,-1.12547 z m 1.46125,-4.683953 c -0.15382,-1.080488 -1.82241,-1.229454 -2.15166,-0.192093 -0.16902,0.532531 -0.0634,0.885836 0.35671,1.193015 0.8299,0.606833 1.93602,-0.01 1.79495,-1.000922 z m 3.24244,-2.682568 c 0.51066,-0.810912 -0.44583,-1.776333 -1.44555,-1.459035 -0.7922,0.251435 -0.94389,1.173702 -0.29909,1.818501 0.53681,0.53681 1.27614,0.384478 1.74464,-0.359466 z m 4.44885,-1.61653 c 0,-0.633125 -0.20278,-0.876149 -0.80181,-0.960903 -1.03728,-0.146763 -1.52901,0.364367 -1.23666,1.285471 0.35229,1.109962 2.03847,0.841486 2.03847,-0.324568 z"
     id="path3729"
     inkscape:connector-curvature="0" />
  <path
     id="path3733"
     style="fill:#2a7fff;stroke-width:0.0599243"
     d="m 37.394531,30.826172 c -0.151096,-0.0046 -0.0061,0.02497 0.367188,0.08984 0.365277,0.06349 0.984188,0.153952 1.376953,0.201172 0.794712,0.09554 2.302734,0.127808 2.302734,0.04883 0,-0.02796 -0.396676,-0.06893 -0.882812,-0.0918 -0.486136,-0.02287 -1.27601,-0.07902 -1.753906,-0.125 -0.812583,-0.07819 -1.259061,-0.118468 -1.410157,-0.123047 z" />
  <path
     style="fill:#2a7fff;stroke-width:0.0599243"
     d="m 37.366724,30.844464 c 0,-0.0259 0.05393,-0.04708 0.119849,-0.04708 0.06592,0 0.119848,0.02119 0.119848,0.04708 0,0.0259 -0.05393,0.04708 -0.119848,0.04708 -0.06592,0 -0.119849,-0.02119 -0.119849,-0.04708 z"
     id="path3735"
     inkscape:connector-curvature="0" />
  <path
     style="fill:#2a7fff;stroke-width:0.0599243"
     d="m 18.650201,30.88289 c -0.922452,-0.618842 -1.896602,-1.325085 -2.21462,-1.605565 -2.257348,-1.990895 -3.672248,-4.728082 -4.020844,-7.778503 -0.10672,-0.933867 -0.03981,-2.429159 0.148134,-3.31048 0.148526,-0.696479 0.505083,-1.838761 0.751075,-2.406183 l 0.127246,-0.293513 0.148137,0.139167 c 0.16521,0.155207 0.195933,0.269288 0.0583,0.216473 -0.172986,-0.06638 -0.557177,0.927596 -0.773773,2.001902 -0.373458,1.852327 -0.250958,3.963498 0.330722,5.699698 0.762903,2.277113 2.215638,4.348672 4.248197,6.057809 0.46353,0.389774 2.197787,1.585805 3.175988,2.190323 l 0.209735,0.129614 -0.189853,10e-4 c -0.104419,5.39e-4 -0.226242,0.01497 -0.270717,0.03204 -0.04448,0.01707 -0.821952,-0.466139 -1.727725,-1.073792 z"
     id="path4084"
     inkscape:connector-curvature="0" />
  <path
     style="fill:#2a7fff;stroke-width:0.0599243"
     d="m 23.565052,41.786503 c -2.800365,-0.57259 -3.24706,-0.7018 -4.464361,-1.291344 -3.005023,-1.455347 -5.263686,-4.202281 -6.233271,-7.580757 -0.172832,-0.602228 -0.372659,-1.683599 -0.320711,-1.735546 0.01853,-0.01853 0.20312,0.03 0.410199,0.107849 0.292318,0.109891 0.348146,0.148958 0.249671,0.17471 -0.668895,0.17492 0.245974,2.777781 1.721802,4.898635 0.638074,0.91695 1.754689,2.097897 2.554354,2.701517 1.492415,1.126536 3.267407,1.831763 6.178479,2.454787 1.243241,0.266077 2.027971,0.488925 2.207396,0.626856 0.112554,0.08653 0.111585,0.08924 -0.02996,0.08384 -0.08046,-0.0031 -1.103574,-0.201315 -2.273596,-0.440549 z"
     id="path4086"
     inkscape:connector-curvature="0" />
  <path
     style="fill:#2a7fff;stroke-width:0.0599243"
     d="m 28.508807,50.737824 c -1.63705,-0.04772 -2.434664,-0.15448 -3.539631,-0.473761 -2.869164,-0.829049 -5.417702,-2.864644 -7.001182,-5.592056 -0.225647,-0.388658 -0.397124,-0.719795 -0.381059,-0.735859 0.01606,-0.01607 0.295816,-0.0094 0.621671,0.01487 l 0.592464,0.04408 -0.389508,0.06552 c -0.260043,0.04374 -0.384018,0.09097 -0.372989,0.142095 0.0091,0.04212 0.345422,0.526182 0.747414,1.075697 1.462086,1.998641 3.053555,3.304017 5.07231,4.160482 1.51284,0.641828 2.845627,0.914933 4.890207,1.002063 1.197555,0.05103 1.863032,0.121783 2.012099,0.213911 0.15058,0.09306 0.01557,0.14595 -0.3492,0.136791 -0.222469,-0.0056 -1.078637,-0.02981 -1.902596,-0.05383 z"
     id="path4088"
     inkscape:connector-curvature="0" />
  <path
     style="fill:#2a7fff;stroke-width:0.0599243"
     d="m 28.340186,43.139376 c -0.529,-0.34879 -0.708796,-1.202185 -0.354185,-1.681123 0.168213,-0.227189 0.486014,-0.424108 0.684454,-0.424108 0.720922,0 1.410962,1.073501 1.078532,1.677881 -0.240239,0.436769 -1.030801,0.676581 -1.408801,0.42735 z"
     id="path4090"
     inkscape:connector-curvature="0" />
  <path
     style="fill:#2a7fff;stroke-width:0.0599243"
     d="m 32.313065,43.080353 c -0.305468,-0.162488 -0.54929,-0.538435 -0.58409,-0.900603 -0.02371,-0.246726 -0.0016,-0.347558 0.122365,-0.559157 0.394312,-0.672845 1.307399,-0.705398 1.834923,-0.06542 0.239721,0.290822 0.28729,0.543044 0.151826,0.805007 -0.375197,0.725562 -0.978919,1.010662 -1.525024,0.720173 z"
     id="path4092"
     inkscape:connector-curvature="0" />
  <path
     style="fill:#2a7fff;stroke-width:0.0599243"
     d="m 31.322278,36.095987 c -0.492016,-0.214309 -0.757899,-0.922776 -0.541068,-1.441725 0.126048,-0.301677 0.391638,-0.420415 0.933547,-0.417365 0.674728,0.0038 0.955568,0.191759 1.044498,0.699063 0.0492,0.280679 -0.05635,0.690774 -0.225897,0.877695 -0.289999,0.319707 -0.834076,0.446545 -1.21108,0.282332 z"
     id="path4094"
     inkscape:connector-curvature="0" />
  <path
     style="fill:#2a7fff;stroke-width:0.0599243"
     d="m 27.310454,35.010648 c -0.535936,-0.289629 -0.775588,-0.890555 -0.538217,-1.34958 0.132851,-0.256907 0.488904,-0.417082 0.927129,-0.417082 0.708113,0 0.990042,0.247181 0.988046,0.866267 -0.0013,0.397762 -0.11024,0.640979 -0.375694,0.838638 -0.2129,0.158527 -0.759781,0.192257 -1.001264,0.06176 z"
     id="path4096"
     inkscape:connector-curvature="0" />
  <path
     style="fill:#2a7fff;stroke-width:0.0599243"
     d="m 23.278398,33.99274 c -0.3735,-0.162284 -0.550538,-0.871273 -0.332366,-1.331035 0.157317,-0.331521 0.394185,-0.446543 0.87078,-0.422848 0.458937,0.02282 0.653514,0.15205 0.772707,0.513208 0.09165,0.277712 0.03044,0.834034 -0.113087,1.027714 -0.207542,0.280071 -0.80085,0.385536 -1.198034,0.212961 z"
     id="path4098"
     inkscape:connector-curvature="0" />
  <path
     style="fill:#2a7fff;stroke-width:0.0599243"
     d="m 43.365147,25.219594 c -0.164929,-0.07148 -0.4353,-0.397195 -0.481066,-0.579542 -0.02007,-0.07995 -0.02636,-0.345827 -0.01399,-0.590832 0.0186,-0.368312 0.0472,-0.471765 0.165163,-0.597327 0.198815,-0.211628 0.490196,-0.292611 0.947958,-0.263463 0.481186,0.03064 0.582034,0.13095 0.639144,0.635741 0.07425,0.656271 -0.05674,1.162127 -0.338678,1.307923 -0.215525,0.111452 -0.746544,0.162037 -0.918531,0.0875 z"
     id="path4100"
     inkscape:connector-curvature="0" />
  <path
     style="fill:#2a7fff;stroke-width:0.0599243"
     d="m 41.048088,27.158282 c -0.267527,-1.260094 -0.307742,-1.618319 -0.309076,-2.753131 -0.0014,-1.199711 0.07516,-1.877282 0.330218,-2.922031 0.848374,-3.47508 3.170885,-6.334644 6.495505,-7.997516 0.428459,-0.214301 0.899335,-0.454026 1.046392,-0.532722 0.154005,-0.08242 0.369979,-0.143359 0.509356,-0.143732 0.13309,-3.57e-4 0.376811,-0.04162 0.541603,-0.0917 1.401167,-0.425774 3.953082,-0.508668 5.393187,-0.175187 0.314111,0.07274 0.32547,0.07983 0.08989,0.0561 -0.148313,-0.01494 -0.835944,-0.04421 -1.52807,-0.06504 -2.606379,-0.07846 -4.33268,0.207265 -5.846908,0.967756 -2.423599,1.217205 -4.354195,3.145655 -5.547438,5.541272 -0.853476,1.713483 -0.923861,2.146726 -0.972918,5.988616 l -0.03707,2.902941 z"
     id="path4102"
     inkscape:connector-curvature="0" />
  <path
     style="fill:#2a7fff;stroke-width:0.0599243"
     d="m 44.407034,20.487833 c -0.379321,-0.243588 -0.491174,-0.471951 -0.450557,-0.919878 0.05408,-0.596426 0.440335,-0.946902 1.04057,-0.944183 0.619609,0.0028 1.040162,0.362076 1.087153,0.928733 0.03197,0.38557 -0.09896,0.689541 -0.393919,0.91452 -0.16789,0.128055 -0.288605,0.164063 -0.605791,0.180698 -0.356983,0.01872 -0.423918,0.0029 -0.677456,-0.15989 z"
     id="path4104"
     inkscape:connector-curvature="0" />
  <path
     style="fill:#2a7fff;stroke-width:0.0599243"
     d="m 47.802101,17.258396 c -0.570795,-0.416011 -0.726878,-1.121982 -0.347692,-1.572619 0.220005,-0.261462 0.461844,-0.367719 0.83692,-0.367719 0.930743,0 1.481965,0.865865 0.986578,1.549727 -0.265353,0.366309 -0.51405,0.516473 -0.900275,0.543592 -0.294178,0.02065 -0.362041,0.0026 -0.575531,-0.152981 z"
     id="path4106"
     inkscape:connector-curvature="0" />
  <path
     style="fill:#2a7fff;stroke-width:0.0599243"
     d="m 52.28825,16.07236 c -0.359391,-0.183602 -0.551107,-0.539825 -0.556145,-1.033357 -0.0057,-0.562763 0.300142,-0.811629 0.992444,-0.807438 0.764182,0.0046 1.042352,0.245725 1.042352,0.903443 0,0.387438 -0.128237,0.64511 -0.433646,0.871349 -0.220832,0.163585 -0.784327,0.199176 -1.045005,0.066 z"
     id="path4108"
     inkscape:connector-curvature="0" />
  <path
     style="fill:#2a7fff;stroke-width:0.0599243"
     d=""
     id="path4110"
     inkscape:connector-curvature="0" />
  <path
     style="fill:#2a7fff;stroke-width:0.0599243"
     d="m 63.954032,18.746545 c 0,-0.03232 0.262918,-0.245479 0.584262,-0.473688 1.250696,-0.888207 3.250894,-2.905228 3.250894,-3.278236 0,-0.08907 -0.03964,-0.09833 -0.279905,-0.0654 -0.153947,0.0211 -0.268553,0.0278 -0.254678,0.01489 0.05774,-0.05374 0.913839,-0.396772 0.935688,-0.374922 0.04616,0.04615 -0.815595,1.274068 -1.302443,1.855859 -0.271118,0.32399 -0.725289,0.792635 -1.009269,1.041434 -0.725942,0.636009 -1.924549,1.433231 -1.924549,1.280063 z"
     id="path4112"
     inkscape:connector-curvature="0" />
  <path
     style="fill:#2a7fff;stroke-width:0.0599243"
     d="m 65.153517,23.276158 c 0.114805,-0.110092 0.821949,-0.773891 1.57143,-1.475108 1.39296,-1.303259 1.694727,-1.64591 1.537309,-1.745589 -0.04596,-0.0291 -0.150975,-0.05523 -0.233371,-0.05806 -0.0824,-0.0028 0.132674,-0.08255 0.477933,-0.177158 0.345259,-0.09461 0.638634,-0.161119 0.651944,-0.147808 0.04743,0.04743 -1.331456,1.47063 -2.070598,2.137158 -0.792249,0.714417 -1.982837,1.666732 -2.083753,1.666732 -0.0328,0 0.0343,-0.09008 0.149106,-0.200166 z"
     id="path4114"
     inkscape:connector-curvature="0" />
  <path
     style="fill:#2a7fff;stroke-width:0.0599243"
     d="m 33.433614,50.115745 c -0.29861,-0.106498 -0.452549,-0.24863 -0.587442,-0.542386 -0.135889,-0.295924 -0.139615,-0.468947 -0.0178,-0.826465 0.113384,-0.332765 0.417268,-0.619916 0.715184,-0.675805 0.671869,-0.126044 1.407109,0.517057 1.407109,1.230773 0,0.227518 -0.03066,0.288254 -0.245829,0.486893 -0.241441,0.222897 -0.673562,0.416365 -0.918388,0.411178 -0.06828,-0.0014 -0.227062,-0.03933 -0.352838,-0.08419 z"
     id="path4116"
     inkscape:connector-curvature="0" />
  <path
     style="fill:#2a7fff;stroke-width:0.0599243"
     d="m 28.691576,52.545489 c 0.200124,-0.189997 1.841263,-1.447468 1.862018,-1.426713 0.05588,0.05588 -1.733091,1.477624 -1.862018,1.479799 -0.03596,6.07e-4 -0.03596,-0.01895 0,-0.05309 z"
     id="path4118"
     inkscape:connector-curvature="0" />
  <path
     style="fill:#2a7fff;stroke-width:0.0599243"
     d="M 26.890851,61.96725 C 22.049653,61.663499 17.889405,60.623671 13.604422,58.646391 l -0.702324,-0.324084 0.372741,-0.03671 c 0.205007,-0.02019 0.588468,-0.05296 0.852135,-0.07282 0.455196,-0.03429 0.469333,-0.03173 0.28006,0.05072 -0.29336,0.127795 -0.228865,0.265087 0.229296,0.4881 1.138351,0.554102 6.180717,2.114442 7.986836,2.471495 1.055038,0.208571 1.685054,0.253906 3.998025,0.287689 4.007819,0.05854 8.474613,-0.231835 10.846299,-0.705089 1.759828,-0.351161 4.515112,-1.312214 6.786063,-2.367003 5.704596,-2.649614 10.663826,-6.945985 14.274328,-12.366398 2.169554,-3.257131 3.907088,-7.045088 4.922023,-10.730381 0.09522,-0.345746 0.181088,-0.587281 0.190821,-0.536744 0.02748,0.142692 -0.602627,2.221604 -1.030565,3.400144 -2.6441,7.281835 -7.316137,13.438839 -13.397506,17.655791 -5.885272,4.080972 -12.993658,6.195041 -20.630958,6.135746 -0.765173,-0.0059 -1.526054,-0.01926 -1.690845,-0.0296 z"
     id="path4120"
     inkscape:connector-curvature="0" />
</svg>
